/* XPM */
static char * icon_xpm[] = {
"32 32 849 2",
"  	c #67A7FF",
". 	c #6AA2ED",
"+ 	c #889AA5",
"@ 	c #A38E65",
"# 	c #BA8831",
"$ 	c #CF8A16",
"% 	c #DF960C",
"& 	c #E09D0C",
"* 	c #D69D16",
"= 	c #C9A43F",
"- 	c #B1AE8A",
"; 	c #8CA9C5",
"> 	c #6AA4F1",
", 	c #749FD4",
"' 	c #B09D61",
") 	c #DA9B10",
"! 	c #C17A0F",
"~ 	c #B37128",
"{ 	c #A97344",
"] 	c #9B673C",
"^ 	c #A66A33",
"/ 	c #9C6025",
"( 	c #9E6F40",
"_ 	c #B6864C",
": 	c #C1944D",
"< 	c #CBA051",
"[ 	c #D6A235",
"} 	c #A99564",
"| 	c #729CD2",
"1 	c #69A5F6",
"2 	c #A7AD98",
"3 	c #E09F19",
"4 	c #C17C1E",
"5 	c #A67F5D",
"6 	c #9C856E",
"7 	c #93867D",
"8 	c #8C6A4D",
"9 	c #BA7B36",
"0 	c #99703D",
"a 	c #B2833D",
"b 	c #9E672C",
"c 	c #866E58",
"d 	c #918984",
"e 	c #817163",
"f 	c #8A6D4F",
"g 	c #9D6415",
"h 	c #BF7D0E",
"i 	c #928A7A",
"j 	c #67A1F0",
"k 	c #72A5E4",
"l 	c #D1BB77",
"m 	c #DB9B3A",
"n 	c #B38763",
"o 	c #947C69",
"p 	c #92765E",
"q 	c #A57C54",
"r 	c #7D6B59",
"s 	c #896643",
"t 	c #B87E3A",
"u 	c #AD7B38",
"v 	c #BE8847",
"w 	c #8A5F2F",
"x 	c #8D7358",
"y 	c #947453",
"z 	c #8E7963",
"A 	c #7A716B",
"B 	c #79716B",
"C 	c #7C634D",
"D 	c #8D590F",
"E 	c #8B6532",
"F 	c #6599E1",
"G 	c #7CA8DB",
"H 	c #E1B853",
"I 	c #D28F3C",
"J 	c #93806B",
"K 	c #807567",
"L 	c #AA8768",
"M 	c #87725E",
"N 	c #846B52",
"O 	c #BB8C5A",
"P 	c #AB8154",
"Q 	c #B57234",
"R 	c #B17734",
"S 	c #885D30",
"T 	c #A97036",
"U 	c #967A5E",
"V 	c #937D69",
"W 	c #8B6340",
"X 	c #846B55",
"Y 	c #857769",
"Z 	c #887A6E",
"` 	c #908578",
" .	c #6E4822",
"..	c #644423",
"+.	c #6B95CE",
"@.	c #72A3DE",
"#.	c #E1B443",
"$.	c #C3873C",
"%.	c #82766B",
"&.	c #AF9F7F",
"*.	c #A39171",
"=.	c #937C66",
"-.	c #98836A",
";.	c #A08665",
">.	c #B37F42",
",.	c #DB8C3D",
"'.	c #B78D62",
").	c #97826D",
"!.	c #9E7C57",
"~.	c #B78C60",
"{.	c #B87E48",
"].	c #946231",
"^.	c #9C8062",
"/.	c #9B7A5A",
"(.	c #87694C",
"_.	c #7B634E",
":.	c #7D7369",
"<.	c #8C8277",
"[.	c #80582E",
"}.	c #AB711D",
"|.	c #6C99D4",
"1.	c #69A4F3",
"2.	c #D0AD42",
"3.	c #CC8F36",
"4.	c #776959",
"5.	c #897F6A",
"6.	c #86806B",
"7.	c #A29071",
"8.	c #86755D",
"9.	c #BE944F",
"0.	c #EFB156",
"a.	c #F0A94F",
"b.	c #E3AF69",
"c.	c #888681",
"d.	c #CAC7C6",
"e.	c #C6C3C3",
"f.	c #B0AEB1",
"g.	c #A9A6A7",
"h.	c #AC7542",
"i.	c #C27C34",
"j.	c #A06C38",
"k.	c #9E876D",
"l.	c #7F6956",
"m.	c #72655A",
"n.	c #7A6B60",
"o.	c #ADA8A0",
"p.	c #9E6A28",
"q.	c #B28945",
"r.	c #68A4F6",
"s.	c #A6A57A",
"t.	c #CD8E1B",
"u.	c #8E7F73",
"v.	c #857867",
"w.	c #877963",
"x.	c #897E70",
"y.	c #967E56",
"z.	c #E5B561",
"A.	c #F1BE63",
"B.	c #E8B566",
"C.	c #BFA47F",
"D.	c #787672",
"E.	c #B7B5B9",
"F.	c #C8C7CA",
"G.	c #BBBABF",
"H.	c #AEADB3",
"I.	c #C1BAB8",
"J.	c #9C6736",
"K.	c #C7813C",
"L.	c #BE7C3D",
"M.	c #A66930",
"N.	c #9E826A",
"O.	c #88796C",
"P.	c #6C5945",
"Q.	c #786C5F",
"R.	c #84786D",
"S.	c #C29756",
"T.	c #9CA8B0",
"U.	c #739FD5",
"V.	c #DE9F0F",
"W.	c #A28465",
"X.	c #857464",
"Y.	c #937C60",
"Z.	c #AC9368",
"`.	c #907047",
" +	c #F1C069",
".+	c #EBC274",
"++	c #E5BF76",
"@+	c #9E927F",
"#+	c #8A898A",
"$+	c #B5B3B7",
"%+	c #AFAFB4",
"&+	c #B2B1B4",
"*+	c #BEBCB9",
"=+	c #CECAC3",
"-+	c #B89F88",
";+	c #AC6B2D",
">+	c #C07A38",
",+	c #B57539",
"'+	c #AC6F30",
")+	c #935C24",
"!+	c #A28668",
"~+	c #745D47",
"{+	c #6D6358",
"]+	c #817873",
"^+	c #7E6C59",
"/+	c #C99A4E",
"(+	c #6B9AD7",
"_+	c #AB9865",
":+	c #BB802D",
"<+	c #86786F",
"[+	c #8D7967",
"}+	c #876C56",
"|+	c #8F7654",
"1+	c #EAB75F",
"2+	c #F7CE7A",
"3+	c #FADC88",
"4+	c #F4E39E",
"5+	c #86817D",
"6+	c #B8B2AE",
"7+	c #C0BCB2",
"8+	c #D1CBBD",
"9+	c #DCD6C5",
"0+	c #F1EAD7",
"a+	c #D0C0AC",
"b+	c #8B5A2E",
"c+	c #BC7024",
"d+	c #AF6A29",
"e+	c #A96829",
"f+	c #A46528",
"g+	c #8F5A21",
"h+	c #86521A",
"i+	c #968169",
"j+	c #706253",
"k+	c #665C54",
"l+	c #716964",
"m+	c #976527",
"n+	c #887D65",
"o+	c #69A2ED",
"p+	c #D19116",
"q+	c #9F8067",
"r+	c #7D6E62",
"s+	c #9B754F",
"t+	c #BF9760",
"u+	c #D39D4F",
"v+	c #F5C369",
"w+	c #F2C973",
"x+	c #F2D17B",
"y+	c #F6E59E",
"z+	c #958F80",
"A+	c #ECDFC1",
"B+	c #EDE6D1",
"C+	c #A0876F",
"D+	c #A77C52",
"E+	c #8A725C",
"F+	c #8C592D",
"G+	c #BE7126",
"H+	c #BB6F25",
"I+	c #AC651C",
"J+	c #A05E1C",
"K+	c #9B5D1E",
"L+	c #92571B",
"M+	c #854F15",
"N+	c #815326",
"O+	c #7E6F62",
"P+	c #5F554D",
"Q+	c #645C57",
"R+	c #77614E",
"S+	c #9E6419",
"T+	c #659FEF",
"U+	c #8BA1B1",
"V+	c #CE932B",
"W+	c #927C6A",
"X+	c #9C7B62",
"Y+	c #B69159",
"Z+	c #B1905B",
"`+	c #EFA850",
" @	c #EEB15B",
".@	c #EDB966",
"+@	c #F2C776",
"@@	c #F6D487",
"#@	c #BEB4A6",
"$@	c #EEE9DE",
"%@	c #EAE7DF",
"&@	c #CDC6BF",
"*@	c #BF8249",
"=@	c #C57324",
"-@	c #C26E1E",
";@	c #C37428",
">@	c #BB7229",
",@	c #A9651E",
"'@	c #A25F19",
")@	c #9B5C1B",
"!@	c #8B5217",
"~@	c #804817",
"{@	c #774514",
"]@	c #846F5C",
"^@	c #50463F",
"/@	c #544D48",
"(@	c #645F5B",
"_@	c #8E561B",
":@	c #6885AF",
"<@	c #B2B49C",
"[@	c #C7A063",
"}@	c #918377",
"|@	c #9F7E5C",
"1@	c #B09062",
"2@	c #C8843D",
"3@	c #EEA14A",
"4@	c #F1AA55",
"5@	c #F0AB58",
"6@	c #F0B668",
"7@	c #F6D084",
"8@	c #E7CE9C",
"9@	c #C6C6C9",
"0@	c #CED1DB",
"a@	c #BDC2CE",
"b@	c #A1A2A7",
"c@	c #957659",
"d@	c #B26C26",
"e@	c #B86D20",
"f@	c #B26A21",
"g@	c #A7641C",
"h@	c #A1601A",
"i@	c #975819",
"j@	c #8C5116",
"k@	c #7F4914",
"l@	c #744312",
"m@	c #765232",
"n@	c #4F433B",
"o@	c #58514E",
"p@	c #7A7373",
"q@	c #634220",
"r@	c #63646C",
"s@	c #CAB87F",
"t@	c #AD8F69",
"u@	c #937758",
"v@	c #A07E59",
"w@	c #907659",
"x@	c #D88336",
"y@	c #E9943F",
"z@	c #E89845",
"A@	c #E99949",
"B@	c #F0A95A",
"C@	c #F7C073",
"D@	c #F7CB82",
"E@	c #B49F8A",
"F@	c #A0A4B1",
"G@	c #989BA9",
"H@	c #A9AAAF",
"I@	c #B9B7B5",
"J@	c #978F86",
"K@	c #AC8258",
"L@	c #AE6B24",
"M@	c #A3611A",
"N@	c #9B5C1A",
"O@	c #935617",
"P@	c #874E13",
"Q@	c #7C4613",
"R@	c #714014",
"S@	c #603912",
"T@	c #6C5D52",
"U@	c #54483E",
"V@	c #686460",
"W@	c #6A533D",
"X@	c #775A3F",
"Y@	c #CD9D3C",
"Z@	c #946D4C",
"`@	c #C28540",
" #	c #A16832",
".#	c #AA723D",
"+#	c #D97F2E",
"@#	c #DD8434",
"##	c #DF8738",
"$#	c #DE8639",
"%#	c #E38F41",
"&#	c #EBA155",
"*#	c #F3AC62",
"=#	c #E6A565",
"-#	c #AC9178",
";#	c #B6AFA5",
">#	c #DAD7CD",
",#	c #E7E4DA",
"'#	c #E8E5DE",
")#	c #C7C6C5",
"!#	c #968370",
"~#	c #9A5F1F",
"{#	c #995C18",
"]#	c #8F5516",
"^#	c #844B13",
"/#	c #764212",
"(#	c #6B3C11",
"_#	c #5F3510",
":#	c #5C4937",
"<#	c #5A4931",
"[#	c #362A20",
"}#	c #6B5B4C",
"|#	c #965C1E",
"1#	c #CB830C",
"2#	c #A77440",
"3#	c #A37C48",
"4#	c #B88641",
"5#	c #B57836",
"6#	c #C7762B",
"7#	c #D07D2E",
"8#	c #CA7830",
"9#	c #CC7B2B",
"0#	c #C37328",
"a#	c #CC7931",
"b#	c #D2823B",
"c#	c #D1833E",
"d#	c #C27633",
"e#	c #9D632D",
"f#	c #9A7757",
"g#	c #B8AC9F",
"h#	c #D5D4D6",
"i#	c #DCD9DD",
"j#	c #C7C5C9",
"k#	c #7C5E3E",
"l#	c #92591A",
"m#	c #8A5316",
"n#	c #7E4716",
"o#	c #703F15",
"p#	c #663B12",
"q#	c #5A3311",
"r#	c #654C2F",
"s#	c #876A3C",
"t#	c #916F39",
"u#	c #473828",
"v#	c #A25E16",
"w#	c #C77607",
"x#	c #A37034",
"y#	c #A57C41",
"z#	c #C19053",
"A#	c #835E34",
"B#	c #BB7331",
"C#	c #C87B32",
"D#	c #C3772E",
"E#	c #BA6E24",
"F#	c #B1641C",
"G#	c #AF641C",
"H#	c #BF8854",
"I#	c #A08A6D",
"J#	c #A9906C",
"K#	c #B0895D",
"L#	c #B9885A",
"M#	c #AA9278",
"N#	c #969596",
"O#	c #C1BEC3",
"P#	c #BAB9BE",
"Q#	c #A19183",
"R#	c #8A5217",
"S#	c #824C14",
"T#	c #794315",
"U#	c #6B3B11",
"V#	c #65390E",
"W#	c #593211",
"X#	c #8C6B3B",
"Y#	c #614928",
"Z#	c #927949",
"`#	c #5F4628",
" $	c #9F5B15",
".$	c #A96B18",
"+$	c #866542",
"@$	c #B9874A",
"#$	c #826139",
"$$	c #AA743D",
"%$	c #BD7A37",
"&$	c #BF7936",
"*$	c #BC7634",
"=$	c #B46A26",
"-$	c #AB611C",
";$	c #AB845B",
">$	c #716E6D",
",$	c #A1A0A3",
"'$	c #B0AFB0",
")$	c #9A9A9C",
"!$	c #807F83",
"~$	c #626365",
"{$	c #88878C",
"]$	c #A9A4A6",
"^$	c #CBC5B8",
"/$	c #ACA69A",
"($	c #7C4C19",
"_$	c #7A4716",
":$	c #6D3E15",
"<$	c #6F3E0F",
"[$	c #683B11",
"}$	c #543213",
"|$	c #3D2C1D",
"1$	c #7E6436",
"2$	c #483823",
"3$	c #614F3E",
"4$	c #8C5623",
"5$	c #806B58",
"6$	c #90755A",
"7$	c #9C7752",
"8$	c #A68666",
"9$	c #B77737",
"0$	c #BC7936",
"a$	c #BA7430",
"b$	c #B06C29",
"c$	c #B27535",
"d$	c #8C8781",
"e$	c #CECBCE",
"f$	c #C4C3C7",
"g$	c #AFAEB5",
"h$	c #9A999F",
"i$	c #949197",
"j$	c #A8A39E",
"k$	c #C9C3B4",
"l$	c #E6E1D2",
"m$	c #EFE9E0",
"n$	c #A99D92",
"o$	c #784718",
"p$	c #704115",
"q$	c #6E3E0F",
"r$	c #633811",
"s$	c #492C14",
"t$	c #5E5651",
"u$	c #5D574A",
"v$	c #524B46",
"w$	c #6E533B",
"x$	c #7C593F",
"y$	c #6C6A6D",
"z$	c #916D49",
"A$	c #7B726A",
"B$	c #7C6C60",
"C$	c #AE9073",
"D$	c #905E34",
"E$	c #AB6D32",
"F$	c #AF6D2D",
"G$	c #A76423",
"H$	c #B3814D",
"I$	c #8C8789",
"J$	c #ADABB1",
"K$	c #9B99A1",
"L$	c #9B9999",
"M$	c #917E6D",
"N$	c #B0A193",
"O$	c #CCBDAD",
"P$	c #E9E5DD",
"Q$	c #DFDAD1",
"R$	c #898076",
"S$	c #5F3F24",
"T$	c #734314",
"U$	c #693C13",
"V$	c #60360F",
"W$	c #5E350F",
"X$	c #533014",
"Y$	c #544131",
"Z$	c #58524E",
"`$	c #47423C",
" %	c #85817E",
".%	c #6B4626",
"+%	c #746A70",
"@%	c #73889E",
"#%	c #AC671A",
"$%	c #8F7C6F",
"%%	c #87725D",
"&%	c #796554",
"*%	c #966945",
"=%	c #9C6023",
"-%	c #9C5E1F",
";%	c #9B5B1C",
">%	c #A97540",
",%	c #8D8A8C",
"'%	c #A9A5A4",
")%	c #BFB9AB",
"!%	c #AEA9A0",
"~%	c #88694C",
"{%	c #825026",
"]%	c #6E431B",
"^%	c #724C29",
"/%	c #64421E",
"(%	c #693F18",
"_%	c #723F11",
":%	c #673A0E",
"<%	c #553013",
"[%	c #4C2E13",
"}%	c #75695C",
"|%	c #36302B",
"1%	c #605C5C",
"2%	c #565453",
"3%	c #844D24",
"4%	c #6882AF",
"5%	c #679FE9",
"6%	c #BE7A12",
"7%	c #907B6A",
"8%	c #7C6651",
"9%	c #6B5748",
"0%	c #8B6E55",
"a%	c #8E561E",
"b%	c #92551B",
"c%	c #915419",
"d%	c #8D511A",
"e%	c #AE967D",
"f%	c #C3BEB3",
"g%	c #EDE9DD",
"h%	c #E8E4DF",
"i%	c #A8A7A7",
"j%	c #90867F",
"k%	c #907053",
"l%	c #8A5C33",
"m%	c #764214",
"n%	c #6F3E11",
"o%	c #673B10",
"p%	c #5F350E",
"q%	c #59320F",
"r%	c #523012",
"s%	c #4D2E13",
"t%	c #523720",
"u%	c #645D58",
"v%	c #504B4A",
"w%	c #656261",
"x%	c #67574A",
"y%	c #7B4721",
"z%	c #64A0F1",
"A%	c #A3885C",
"B%	c #A97233",
"C%	c #836E5D",
"D%	c #726358",
"E%	c #756254",
"F%	c #8A694A",
"G%	c #854D17",
"H%	c #844B15",
"I%	c #7D4413",
"J%	c #754015",
"K%	c #7E6651",
"L%	c #BFBBB8",
"M%	c #CDCFD0",
"N%	c #ADB0BB",
"O%	c #979DAA",
"P%	c #8F919A",
"Q%	c #7F7E7D",
"R%	c #7D634A",
"S%	c #62370E",
"T%	c #5E340D",
"U%	c #573110",
"V%	c #4F2E13",
"W%	c #472A14",
"X%	c #452A12",
"Y%	c #6D6052",
"Z%	c #433A34",
"`%	c #676464",
" &	c #6D6C6E",
".&	c #724725",
"+&	c #6D6674",
"@&	c #729BD1",
"#&	c #CF8C29",
"$&	c #9E897A",
"%&	c #776A5F",
"&&	c #715C4A",
"*&	c #6D5A4B",
"=&	c #7E5935",
"-&	c #734114",
";&	c #703E11",
">&	c #6C3D11",
",&	c #673810",
"'&	c #6F4A30",
")&	c #715640",
"!&	c #7C6A5C",
"~&	c #978F8D",
"{&	c #C2C2C4",
"]&	c #DFDBD6",
"^&	c #B8B5AD",
"/&	c #613A1B",
"(&	c #532F11",
"_&	c #512E13",
":&	c #442914",
"<&	c #3E2615",
"[&	c #594B40",
"}&	c #443F3C",
"|&	c #55504D",
"1&	c #615C59",
"2&	c #6A5A4B",
"3&	c #7A431F",
"4&	c #6597E0",
"5&	c #9C9C8F",
"6&	c #B38036",
"7&	c #92847C",
"8&	c #706357",
"9&	c #604D42",
"0&	c #7D7065",
"a&	c #745030",
"b&	c #663910",
"c&	c #62360E",
"d&	c #5E310E",
"e&	c #917052",
"f&	c #97908C",
"g&	c #9D8065",
"h&	c #8C735C",
"i&	c #9B978F",
"j&	c #E9E3CA",
"k&	c #E2DCCC",
"l&	c #54371D",
"m&	c #512F13",
"n&	c #4B2D14",
"o&	c #3F2815",
"p&	c #6D5E51",
"q&	c #4F4B48",
"r&	c #5C5651",
"s&	c #69645F",
"t&	c #6D6968",
"u&	c #834F21",
"v&	c #707182",
"w&	c #68A2F1",
"x&	c #B18534",
"y&	c #A57740",
"z&	c #968B87",
"A&	c #645244",
"B&	c #5E534C",
"C&	c #6B5E53",
"D&	c #79604A",
"E&	c #5A3211",
"F&	c #5A3513",
"G&	c #7D6E5E",
"H&	c #9C978E",
"I&	c #918C85",
"J&	c #A8A59A",
"K&	c #BFBDB6",
"L&	c #C2BBB5",
"M&	c #422B17",
"N&	c #452B15",
"O&	c #422C1A",
"P&	c #6E6258",
"Q&	c #4D4741",
"R&	c #514A49",
"S&	c #56504B",
"T&	c #5A5756",
"U&	c #79532F",
"V&	c #7D5C3C",
"W&	c #66A2F5",
"X&	c #6D98D1",
"Y&	c #AD711E",
"Z&	c #9D7349",
"`&	c #6E655F",
" *	c #68615D",
".*	c #60544D",
"+*	c #584940",
"@*	c #73675C",
"#*	c #705844",
"$*	c #4C2E18",
"%*	c #4B2E16",
"&*	c #5B4432",
"**	c #7D7367",
"=*	c #8B817D",
"-*	c #80766A",
";*	c #463627",
">*	c #3F2C1E",
",*	c #645449",
"'*	c #57524F",
")*	c #4F4C4B",
"!*	c #54504F",
"~*	c #535151",
"{*	c #7A7779",
"]*	c #7C5A34",
"^*	c #8C5722",
"/*	c #699ADF",
"(*	c #7298CE",
"_*	c #925C1F",
":*	c #936941",
"<*	c #8B8684",
"[*	c #5E5853",
"}*	c #544E4A",
"|*	c #3E3530",
"1*	c #5A544E",
"2*	c #584D45",
"3*	c #463629",
"4*	c #5E4933",
"5*	c #554328",
"6*	c #42352B",
"7*	c #625954",
"8*	c #5C5852",
"9*	c #44413E",
"0*	c #4B4947",
"a*	c #595756",
"b*	c #676463",
"c*	c #676260",
"d*	c #7D572E",
"e*	c #8D5822",
"f*	c #6A92CE",
"g*	c #6594D6",
"h*	c #825A34",
"i*	c #A06425",
"j*	c #897667",
"k*	c #827F7F",
"l*	c #615A57",
"m*	c #686563",
"n*	c #5A534D",
"o*	c #63584B",
"p*	c #574833",
"q*	c #85683C",
"r*	c #8A6934",
"s*	c #554229",
"t*	c #483E35",
"u*	c #524C47",
"v*	c #504E4B",
"w*	c #4E4A49",
"x*	c #55504E",
"y*	c #746558",
"z*	c #7F5D3A",
"A*	c #6799E0",
"B*	c #68A2F3",
"C*	c #8A7D72",
"D*	c #BA7114",
"E*	c #9D6E31",
"F*	c #877869",
"G*	c #66615E",
"H*	c #86827F",
"I*	c #4D463F",
"J*	c #4A3923",
"K*	c #8A6C37",
"L*	c #8A754F",
"M*	c #49381E",
"N*	c #514B48",
"O*	c #666464",
"P*	c #514E4C",
"Q*	c #6A5B4E",
"R*	c #7C5125",
"S*	c #94581B",
"T*	c #777680",
"U*	c #65A1F4",
"V*	c #6F99D2",
"W*	c #9B8C70",
"X*	c #D3A866",
"Y*	c #C09C63",
"Z*	c #8F7147",
"`*	c #74604E",
" =	c #51453B",
".=	c #574225",
"+=	c #5B452B",
"@=	c #63554B",
"#=	c #776251",
"$=	c #704E2E",
"%=	c #8D551F",
"&=	c #975C1B",
"*=	c #7C726E",
"==	c #6597DB",
"-=	c #6AA3F2",
";=	c #869DBA",
">=	c #908871",
",=	c #7C5E3C",
"'=	c #77451E",
")=	c #864919",
"!=	c #905116",
"~=	c #845325",
"{=	c #775841",
"]=	c #756C70",
"^=	c #7087AC",
"                    . + @ # $ % & * = - ; >                     ",
"                , ' ) ! ~ { ] ^ / ( _ : < [ } |                 ",
"            1 2 3 4 5 6 7 8 9 0 a b c d e f g h i j             ",
"          k l m n o p q r s t u v w x y z A B C D E F           ",
"        G H I J K L M N O P Q R S T U V W X Y Z `  ...+.        ",
"      @.#.$.%.&.*.=.-.;.>.,.'.).!.~.{.].^./.(._.:.<.[.}.|.      ",
"    1.2.3.4.5.6.7.8.9.0.a.b.c.d.e.f.g.h.i.j.k.l.m.n.o.p.q.r.    ",
"    s.t.u.v.w.x.y.z.A.B.C.D.E.F.G.H.I.J.K.L.M.N.O.P.Q.R.S.T.    ",
"  U.V.W.X.Y.Z.`. +.+++@+#+$+%+&+*+=+-+;+>+,+'+)+!+~+{+]+^+/+(+  ",
"  _+:+<+[+}+|+1+2+3+4+5+6+7+8+9+0+a+b+c+d+e+f+g+h+i+j+k+l+m+n+  ",
"o+p+q+r+s+t+u+v+w+x+y+z+A+B+C+D+E+F+G+H+I+J+K+L+M+N+O+P+Q+R+S+T+",
"U+V+W+X+Y+Z+`+ @.@+@@@#@$@%@&@*@=@-@;@>@,@'@)@!@~@{@]@^@/@(@_@:@",
"<@[@}@|@1@2@3@4@5@6@7@8@9@0@a@b@c@d@e@f@g@h@i@j@k@l@m@n@o@p@q@r@",
"s@t@u@v@w@x@y@z@A@B@C@D@E@F@G@H@I@J@K@L@M@N@O@P@Q@R@S@T@U@V@W@X@",
"Y@Z@`@ #.#+#@###$#%#&#*#=#-#;#>#,#'#)#!#~#{#]#^#/#(#_#:#<#[#}#|#",
"1#2#3#4#5#6#7#8#9#0#a#b#c#d#e#f#g#h#i#j#k#l#m#n#o#p#q#r#s#t#u#v#",
"w#x#y#z#A#B#C#D#E#F#G#H#I#J#K#L#M#N#O#P#Q#R#S#T#U#V#W#X#Y#Z#`# $",
".$+$@$#$$$%$&$*$=$-$;$>$,$'$)$!$~${$]$^$/$($_$:$<$[$}$|$1$2$3$4$",
"X@5$6$7$8$9$0$a$b$c$d$e$f$g$h$i$j$k$l$m$n$o$p$q$<$r$s$t$u$v$w$x$",
"y$z$A$B$C$D$E$F$G$H$I$J$K$L$M$N$O$P$Q$R$S$T$U$V$W$X$Y$Z$`$ %.%+%",
"@%#%$%%%&%*%=%-%;%>%,%'%)%!%~%{%]%^%/%(%_%:%W$q#<%[%}%|%1%2%3%4%",
"5%6%7%8%9%0%a%b%c%d%e%f%g%h%i%j%k%l%m%n%o%p%q%r%s%t%u%v%w%x%y%z%",
"  A%B%C%D%E%F%G%H%I%J%K%L%M%N%O%P%Q%R%S%T%U%V%W%X%Y%Z%`% &.&+&  ",
"  @&#&$&%&&&*&=&-&;&>&,&'&)&!&~&{&]&^&/&(&_&:&<&[&}&|&1&2&3&4&  ",
"    5&6&7&8&9&0&a&b&c&d&e&f&g&h&i&j&k&l&m&n&o&p&q&r&s&t&u&v&    ",
"    w&x&y&z&A&B&C&D&E&q#F&G&H&I&J&K&L&M&N&O&P&Q&R&S&T&U&V&W&    ",
"      X&Y&Z&`& *.*+*@*#*$*%*&***=*-*;*>*,*'*)*!*~*{*]*^*/*      ",
"        (*_*:*<*[* *}*|*1*2*3*4*5*6*7*8*9*0*a*b*c*d*e*f*        ",
"          g*h*i*j*k*l*m*n*o*p*q*r*s*t*u*v*w*x*y*e*z*A*          ",
"            B*C*D*E*F*G*H*I*J*K*L*M*N*O*P*Q*R*S*T*U*            ",
"                V*W*X*Y*Z*`* =.=+=@=#=$=%=&=*===                ",
"                    -=;=>=,='=)=!=~={=]=^=T+                    "};
